#!OML:ASF H:\Terrain\Patient Classification 1\Terrain2\Thursday\justin.ASF
:FULLY-SPECIFIED
:DEGREES
3279
root -13.6394 17.5858 11.173 1981.1 36.699 -178.977
lowerback 6.61984 1.40763 -3.14457
upperback 3.01691 1.84073 1.6411
thorax -0.745286 0.945362 3.32454
lowerneck -14.3251 -5.70383 -9.84848
upperneck 34.6826 -5.19827 5.19034
head 14.8923 -2.10283 3.19187
rclavicle 2.59166e-014 7.95139e-015
rhumerus -28.035 -8.46708 -80.8688
rradius 28.2554
rwrist -8.31544
rhand -17.0156 16.0546
rfingers 7.12502
rthumb 9.22031 -13.7238
lclavicle 2.59166e-014 7.95139e-015
lhumerus -32.2748 5.78876 81.6234
lradius 29.7347
lwrist 3.88633
lhand -18.425 22.8273
lfingers 7.12502
lthumb 7.86019 52.6612
rfemur -17.0126 -9.48088 15.8044
rtibia 50.2664
rfoot -19.9111 -7.7123
rtoes 4.32736
lfemur -6.50571 4.85758 -22.124
ltibia 25.7429
lfoot -16.2973 6.35231
ltoes 10.6004
3280
root -13.6629 17.5936 11.203 1981.66 37.3593 -178.781
lowerback 6.42178 1.13351 -3.20168
upperback 2.77748 1.46214 1.71417
thorax -0.854971 0.754287 3.46203
lowerneck -14.4366 -5.58848 -9.88569
upperneck 34.7879 -5.01746 5.1668
head 14.9495 -2.04107 3.22083
rclavicle 2.78547e-014 2.08724e-014
rhumerus -28.1446 -7.59707 -81.2608
rradius 28.4401
rwrist -8.46301
rhand -16.2173 15.8073
rfingers 7.12502
rthumb 9.9905 -13.9356
lclavicle 2.78547e-014 2.08724e-014
lhumerus -32.576 6.50428 81.2732
lradius 29.4975
lwrist 3.47245
lhand -18.3494 22.2585
lfingers 7.12502
lthumb 7.93316 52.0897
rfemur -17.2999 -10.6251 16.2762
rtibia 50.813
rfoot -19.8396 -8.00769
rtoes 5.89626
lfemur -7.10102 5.69114 -21.9153
ltibia 25.9514
lfoot -16.3607 6.22134
ltoes 9.82106
3281
root -13.688 17.5998 11.2024 1981.94 38.5825 -178.391
lowerback 6.35733 1.07795 -2.82194
upperback 2.727 1.408 1.71267
thorax -0.859098 0.728653 3.25058
lowerneck -14.4568 -5.48557 -9.94018
upperneck 34.7267 -4.94391 5.34055
head 14.9236 -2.00443 3.31198
rclavicle -7.04692e-014 1.47101e-014
rhumerus -28.2646 -6.55988 -81.8231
rradius 28.7001
rwrist -9.44821
rhand -16.7077 16.1321
rfingers 7.12502
rthumb 9.51738 -13.633
lclavicle -7.04692e-014 1.47101e-014
lhumerus -32.8066 6.64812 81.0925
lradius 29.2066
lwrist 3.43859
lhand -18.5064 21.3369
lfingers 7.12502
lthumb 7.78158 51.1737
rfemur -17.1227 -11.5301 16.7009
rtibia 51.2482
rfoot -19.6846 -8.23397
rtoes 6.54344
lfemur -7.20857 5.93267 -21.7222
ltibia 26.173
lfoot -16.5191 7.06168
ltoes 10.2436
3282
root -13.7128 17.5884 11.1839 1981.97 39.9858 -177.826
lowerback 6.47365 1.20867 -2.12063
upperback 2.82144 1.6268 1.6882
thorax -0.825391 0.843376 2.81247
lowerneck -14.3277 -5.46043 -9.7921
upperneck 34.548 -5.0155 5.38379
head 14.8098 -2.02044 3.28378
rclavicle 2.79541e-014 2.5842e-015
rhumerus -28.3969 -6.39915 -82.0942
rradius 28.8127
rwrist -9.98842
rhand -18.6135 15.9535
rfingers 7.12502
rthumb 7.67825 -13.8871
lclavicle 2.79541e-014 2.5842e-015
lhumerus -32.9153 6.43629 81.0747
lradius 28.7305
lwrist 3.38757
lhand -18.2338 21.2356
lfingers 7.12502
lthumb 8.04473 51.0624
rfemur -16.3853 -12.2803 17.0421
rtibia 51.6031
rfoot -19.8599 -8.09949
rtoes 7.995
lfemur -6.78594 6.15684 -21.4371
ltibia 26.3591
lfoot -16.7279 8.02176
ltoes 10.9347
3283
root -13.7324 17.572 11.167 1981.69 41.3772 -178.016
lowerback 6.38019 1.32681 -2.1831
upperback 2.84861 1.77915 1.64978
thorax -0.755979 0.917142 2.79924
lowerneck -14.2039 -5.42225 -9.77957
upperneck 34.5503 -4.94036 5.26079
head 14.7703 -2.00792 3.24266
rclavicle 1.28539e-013 -1.90833e-014
rhumerus -28.5387 -6.38312 -82.0226
rradius 28.7909
rwrist -9.79138
rhand -19.9502 15.1352
rfingers 7.12502
rthumb 6.3879 -14.7485
lclavicle 1.28539e-013 -1.90833e-014
lhumerus -33.0981 6.52322 81.2083
lradius 28.0487
lwrist 3.19383
lhand -18.4914 21.0735
lfingers 7.12502
lthumb 7.79606 50.9098
rfemur -15.7831 -13.0468 16.6784
rtibia 51.9393
rfoot -20.2763 -7.59249
rtoes 10.6001
lfemur -6.55414 6.53362 -21.7728
ltibia 26.5194
lfoot -16.6632 8.78734
ltoes 11.1079
3284
root -13.7511 17.5665 11.1644 1981.38 42.7373 -178.575
lowerback 6.15024 1.39557 -2.63843
upperback 2.78481 1.83939 1.60569
thorax -0.709563 0.940547 3.01033
lowerneck -14.0433 -5.38701 -10.0591
upperneck 34.5534 -4.82946 5.26449
head 14.7367 -2.00251 3.3124
rclavicle -6.29402e-014 2.98177e-015
rhumerus -28.7153 -5.96592 -81.9935
rradius 28.93
rwrist -9.82503
rhand -19.6771 14.8865
rfingers 7.12502
rthumb 6.65149 -14.9891
lclavicle -6.29402e-014 2.98177e-015
lhumerus -33.4119 6.8893 81.3006
lradius 27.5187
lwrist 2.90708
lhand -19.272 20.7518
lfingers 7.12502
lthumb 7.04255 50.6147
rfemur -15.3822 -13.5049 16.092
rtibia 52.2255
rfoot -20.7121 -6.98637
rtoes 14.2636
lfemur -6.65753 6.97793 -22.3596
ltibia 26.6454
lfoot -16.6154 9.48895
ltoes 10.5813
3285
root -13.7713 17.5556 11.1689 1980.98 44.0265 -179.017
lowerback 6.19731 1.45599 -2.8918
upperback 2.73922 1.89751 1.47911
thorax -0.79018 0.968168 3.01619
lowerneck -13.688 -5.33718 -10.2926
upperneck 34.2512 -4.84247 5.50253
head 14.5317 -2.02011 3.4399
rclavicle 4.57702e-014 6.55989e-015
rhumerus -28.8986 -5.83307 -82.0984
rradius 28.9807
rwrist -9.64589
rhand -19.8507 14.5192
rfingers 7.12502
rthumb 6.48398 -15.3615
lclavicle 4.57702e-014 6.55989e-015
lhumerus -33.7883 7.38916 81.0376
lradius 27.3237
lwrist 2.37651
lhand -19.2 21.2348
lfingers 7.12502
lthumb 7.11207 51.0953
rfemur -14.8323 -13.8626 15.6579
rtibia 52.4161
rfoot -21.1833 -6.76558
rtoes 17.2661
lfemur -6.53772 7.52893 -22.7816
ltibia 26.6632
lfoot -17.388 10.1064
ltoes 10.9989
3286
root -13.7855 17.5443 11.1673 1980.79 45.2697 -179.057
lowerback 6.27001 1.50494 -2.89037
upperback 2.67481 1.95557 1.42454
thorax -0.899464 0.998287 2.95183
lowerneck -13.3101 -5.25939 -10.4293
upperneck 34.0417 -4.84659 5.79028
head 14.3618 -2.00982 3.57715
rclavicle 4.34344e-014 -5.76476e-015
rhumerus -29.0288 -6.06562 -82.1535
rradius 28.7149
rwrist -8.96476
rhand -20.2867 14.246
rfingers 7.12502
rthumb 6.06303 -15.6472
lclavicle 4.34344e-014 -5.76476e-015
lhumerus -34.1469 7.52883 80.92
lradius 27.0498
lwrist 2.31921
lhand -19.5051 21.5074
lfingers 7.12502
lthumb 6.81756 51.3776
rfemur -14.4125 -14.6962 15.6677
rtibia 52.4309
rfoot -21.2246 -7.76693
rtoes 15.4724
lfemur -6.30497 7.99056 -22.8702
ltibia 26.6512
lfoot -17.1365 10.7212
ltoes 10.7698
3287
root -13.7939 17.5438 11.1579 1980.68 46.5876 -179.189
lowerback 6.15411 1.56985 -3.07043
upperback 2.56599 2.02673 1.44284
thorax -0.958917 1.03212 3.0681
lowerneck -13.2213 -5.21429 -10.3648
upperneck 34.1435 -4.75067 5.62043
head 14.3708 -1.98475 3.51503
rclavicle 5.15101e-014 -2.24627e-014
rhumerus -29.2152 -6.01418 -82.1415
rradius 28.6394
rwrist -8.6294
rhand -19.6559 14.5086
rfingers 7.12502
rthumb 6.67201 -15.3663
lclavicle 5.15101e-014 -2.24627e-014
lhumerus -34.5221 7.51397 81.052
lradius 26.4577
lwrist 2.83103
lhand -20.6431 20.0008
lfingers 7.12502
lthumb 5.71897 49.9036
rfemur -14.1347 -15.5486 15.6018
rtibia 52.2856
rfoot -20.8749 -8.70807
rtoes 12.9286
lfemur -6.23923 8.26866 -23.0785
ltibia 26.7281
lfoot -17.5003 11.4512
ltoes 12.899
3288
root -13.806 17.5439 11.1549 1980.61 47.9846 -179.335
lowerback 6.04179 1.5837 -3.23829
upperback 2.48597 2.03253 1.458
thorax -0.985397 1.03326 3.17956
lowerneck -13.3826 -5.11731 -10.1615
upperneck 34.2389 -4.54465 5.25287
head 14.4111 -1.92549 3.36034
rclavicle 2.09221e-014 -3.97569e-015
rhumerus -29.363 -5.34963 -82.3663
rradius 28.8567
rwrist -9.04995
rhand -19.3882 14.5872
rfingers 7.12502
rthumb 6.9304 -15.2794
lclavicle 2.09221e-014 -3.97569e-015
lhumerus -34.9421 8.33061 80.7454
lradius 26.0697
lwrist 2.23854
lhand -20.6186 19.8327
lfingers 7.12502
lthumb 5.74255 49.7348
rfemur -13.8006 -16.0233 15.4886
rtibia 52.0082
rfoot -20.6891 -8.81388
rtoes 13.0045
lfemur -6.32612 8.62955 -23.2927
ltibia 26.9165
lfoot -17.7767 12.2902
ltoes 12.5643
3289
root -13.8236 17.538 11.1631 1981.36 49.2511 -178.533
lowerback 5.86909 1.43973 -2.73823
upperback 2.39749 1.87151 1.63229
thorax -0.959033 0.953638 3.09263
lowerneck -13.4696 -4.92235 -10.2018
upperneck 34.2185 -4.27206 5.26206
head 14.3933 -1.82278 3.41252
rclavicle -5.64548e-014 -3.37934e-015
rhumerus -29.4474 -4.23337 -82.7544
rradius 29.0607
rwrist -9.69279
rhand -19.8556 14.4368
rfingers 7.12502
rthumb 6.47926 -15.4441
lclavicle -5.64548e-014 -3.37934e-015
lhumerus -35.3199 9.59577 80.1886
lradius 25.9151
lwrist 0.816051
lhand -19.5346 21.6812
lfingers 7.12502
lthumb 6.78912 51.5524
rfemur -13.533 -16.459 16.1826
rtibia 51.5997
rfoot -20.6449 -8.90079
rtoes 12.816
lfemur -6.62777 8.89403 -22.7916
ltibia 27.1531
lfoot -18.1733 12.9064
ltoes 13.1329
